<svg width="180" height="180" viewBox="0 0 180 180" fill="none" xmlns="http://www.w3.org/2000/svg">
<rect x="92" y="42" width="20" height="5" rx="2.5" transform="rotate(-90 92 42)" fill="#35495E"/>
<rect x="92" y="110" width="40" height="5" rx="2.5" transform="rotate(-90 92 110)" fill="#35495E"/>
<rect x="75" y="93.2132" width="24" height="5" rx="2.5" transform="rotate(-45 75 93.2132)" fill="#35495E"/>
<rect width="24" height="5" rx="2.5" transform="matrix(-0.707107 -0.707107 -0.707107 0.707107 113.749 93.2132)" fill="#35495E"/>
<path d="M89.3153 63.1487C90.6905 61.7739 92.5555 61.0016 94.5 61.0016C96.4445 61.0016 98.3095 61.7739 99.6847 63.1487H89.3153ZM89 51.8333H89.0183H89ZM100 51.8333H100.018H100ZM111 55.5C111 57.6668 110.573 59.8124 109.744 61.8143C108.915 63.8161 107.699 65.6351 106.167 67.1673C104.635 68.6994 102.816 69.9148 100.814 70.744C98.8124 71.5732 96.6668 72 94.5 72C92.3332 72 90.1876 71.5732 88.1857 70.744C86.1839 69.9148 84.3649 68.6994 82.8327 67.1673C81.3006 65.6351 80.0852 63.8161 79.256 61.8143C78.4268 59.8124 78 57.6668 78 55.5C78 51.1239 79.7384 46.9271 82.8327 43.8327C85.9271 40.7384 90.1239 39 94.5 39C98.8761 39 103.073 40.7384 106.167 43.8327C109.262 46.9271 111 51.1239 111 55.5Z" fill="white" stroke="#35495E" stroke-width="4" stroke-linecap="round" stroke-linejoin="round"/>
</svg>
