<svg width="180" height="180" viewBox="0 0 180 180" fill="none" xmlns="http://www.w3.org/2000/svg">
<rect x="92" y="146" width="40" height="5" rx="2.5" transform="rotate(-90 92 146)" fill="#35495E"/>
<rect x="76.1107" y="112.331" width="24" height="5" rx="2.5" transform="rotate(30 76.1107 112.331)" fill="#35495E"/>
<rect width="24" height="5" rx="2.5" transform="matrix(-0.965926 0.258819 0.258819 0.965926 114.44 116.975)" fill="#35495E"/>
<rect x="71" y="158.213" width="30" height="5" rx="2.5" transform="rotate(-45 71 158.213)" fill="#35495E"/>
<rect width="30" height="5" rx="2.5" transform="matrix(-0.707107 -0.707107 -0.707107 0.707107 117.749 158.213)" fill="#35495E"/>
<path d="M99.6847 96.6847C98.3095 98.0595 96.4445 98.8318 94.5 98.8318C92.5555 98.8318 90.6905 98.0595 89.3153 96.6847H99.6847ZM89 87.8333H89.0183H89ZM100 87.8333H100.018H100ZM111 91.5C111 93.6668 110.573 95.8124 109.744 97.8143C108.915 99.8161 107.699 101.635 106.167 103.167C104.635 104.699 102.816 105.915 100.814 106.744C98.8124 107.573 96.6668 108 94.5 108C92.3332 108 90.1876 107.573 88.1857 106.744C86.1839 105.915 84.3649 104.699 82.8327 103.167C81.3006 101.635 80.0852 99.8161 79.256 97.8143C78.4268 95.8124 78 93.6668 78 91.5C78 87.1239 79.7384 82.9271 82.8327 79.8327C85.9271 76.7384 90.1239 75 94.5 75C98.8761 75 103.073 76.7384 106.167 79.8327C109.262 82.9271 111 87.1239 111 91.5Z" fill="white" stroke="#35495E" stroke-width="4" stroke-linecap="round" stroke-linejoin="round"/>
</svg>
